<svg xmlns="http://www.w3.org/2000/svg" xmlns:xlink="http://www.w3.org/1999/xlink" id="Layer_1" width="512" height="512" x="0" style="enable-background:new 0 0 512 512" y="0" version="1.1" viewBox="0 0 512 512" xml:space="preserve"><style type="text/css">.st0{fill:none;stroke:#b35047}</style><g id="svgGrid"><line x1="32" x2="32" y1="0" y2="512" class="st0"/><line x1="64" x2="64" y1="0" y2="512" class="st0"/><line x1="96" x2="96" y1="0" y2="512" class="st0"/><line x1="128" x2="128" y1="0" y2="512" class="st0"/><line x1="160" x2="160" y1="0" y2="512" class="st0"/><line x1="192" x2="192" y1="0" y2="512" class="st0"/><line x1="224" x2="224" y1="0" y2="512" class="st0"/><line x1="256" x2="256" y1="0" y2="512" class="st0"/><line x1="288" x2="288" y1="0" y2="512" class="st0"/><line x1="320" x2="320" y1="0" y2="512" class="st0"/><line x1="352" x2="352" y1="0" y2="512" class="st0"/><line x1="384" x2="384" y1="0" y2="512" class="st0"/><line x1="416" x2="416" y1="0" y2="512" class="st0"/><line x1="448" x2="448" y1="0" y2="512" class="st0"/><line x1="480" x2="480" y1="0" y2="512" class="st0"/><line x1="0" x2="512" y1="32" y2="32" class="st0"/><line x1="0" x2="512" y1="64" y2="64" class="st0"/><line x1="0" x2="512" y1="96" y2="96" class="st0"/><line x1="0" x2="512" y1="128" y2="128" class="st0"/><line x1="0" x2="512" y1="160" y2="160" class="st0"/><line x1="0" x2="512" y1="192" y2="192" class="st0"/><line x1="0" x2="512" y1="224" y2="224" class="st0"/><line x1="0" x2="512" y1="256" y2="256" class="st0"/><line x1="0" x2="512" y1="288" y2="288" class="st0"/><line x1="0" x2="512" y1="320" y2="320" class="st0"/><line x1="0" x2="512" y1="352" y2="352" class="st0"/><line x1="0" x2="512" y1="384" y2="384" class="st0"/><line x1="0" x2="512" y1="416" y2="416" class="st0"/><line x1="0" x2="512" y1="448" y2="448" class="st0"/><line x1="0" x2="512" y1="480" y2="480" class="st0"/><rect width="512" height="512" class="st0"/></g><path d="M0,32v448c0,17.7,14.3,32,32,32h241.5V313.7h-66.8v-77.2h66.8v-57.1c0-66.1,40.4-102.1,99.4-102.1c28.3,0,52.6,2.1,59.6,3	v69.1h-41c-32,0-38.2,15.4-38.2,37.8v49.3h76.5l-9.9,77.4h-66.5v198H480c17.7,0,32-14.3,32-32V32c0-17.7-14.3-32-32-32H32	C14.3,0,0,14.3,0,32z"/></svg>