<svg xmlns="http://www.w3.org/2000/svg" xmlns:xlink="http://www.w3.org/1999/xlink" id="Layer_1" width="512" height="512" x="0" style="enable-background:new 0 0 512 512" y="0" version="1.1" viewBox="0 0 512 512" xml:space="preserve"><style type="text/css">.st0{fill:none;stroke:#b35047}</style><g id="svgGrid"><line x1="32" x2="32" y1="0" y2="512" class="st0"/><line x1="64" x2="64" y1="0" y2="512" class="st0"/><line x1="96" x2="96" y1="0" y2="512" class="st0"/><line x1="128" x2="128" y1="0" y2="512" class="st0"/><line x1="160" x2="160" y1="0" y2="512" class="st0"/><line x1="192" x2="192" y1="0" y2="512" class="st0"/><line x1="224" x2="224" y1="0" y2="512" class="st0"/><line x1="256" x2="256" y1="0" y2="512" class="st0"/><line x1="288" x2="288" y1="0" y2="512" class="st0"/><line x1="320" x2="320" y1="0" y2="512" class="st0"/><line x1="352" x2="352" y1="0" y2="512" class="st0"/><line x1="384" x2="384" y1="0" y2="512" class="st0"/><line x1="416" x2="416" y1="0" y2="512" class="st0"/><line x1="448" x2="448" y1="0" y2="512" class="st0"/><line x1="480" x2="480" y1="0" y2="512" class="st0"/><line x1="0" x2="512" y1="32" y2="32" class="st0"/><line x1="0" x2="512" y1="64" y2="64" class="st0"/><line x1="0" x2="512" y1="96" y2="96" class="st0"/><line x1="0" x2="512" y1="128" y2="128" class="st0"/><line x1="0" x2="512" y1="160" y2="160" class="st0"/><line x1="0" x2="512" y1="192" y2="192" class="st0"/><line x1="0" x2="512" y1="224" y2="224" class="st0"/><line x1="0" x2="512" y1="256" y2="256" class="st0"/><line x1="0" x2="512" y1="288" y2="288" class="st0"/><line x1="0" x2="512" y1="320" y2="320" class="st0"/><line x1="0" x2="512" y1="352" y2="352" class="st0"/><line x1="0" x2="512" y1="384" y2="384" class="st0"/><line x1="0" x2="512" y1="416" y2="416" class="st0"/><line x1="0" x2="512" y1="448" y2="448" class="st0"/><line x1="0" x2="512" y1="480" y2="480" class="st0"/><rect width="512" height="512" class="st0"/></g><path d="M465.4,232.7v-46.6h-46.6v46.6h-46.5v46.5h46.6v46.6h46.7v-46.6H512v-46.5H465.4z M162.9,232.7v55.9h92.5	c-3.7,24-27.9,70.3-92.4,70.3C107.4,358.9,62,312.8,62,256c0-56.8,45.3-102.9,100.9-102.9c31.7,0,52.9,13.5,65,25.1l44.2-42.5	c-28.4-26.6-65.2-42.6-109.1-42.6C72.8,93.1,0,166.1,0,256s72.8,162.9,162.9,162.9c94.1,0,156.4-66.1,156.4-159.2	c0-10.7-1.2-18.9-2.6-27H162.9z"/></svg>