<svg xmlns="http://www.w3.org/2000/svg" xmlns:xlink="http://www.w3.org/1999/xlink" width="512" height="512" fill="#000" viewBox="0 0 512 512"><g id="svgGrid" class="svgGrid"><line x1="32" x2="32" y1="0" y2="512" stroke="#B35047" stroke-width="1"/><line x1="64" x2="64" y1="0" y2="512" stroke="#B35047" stroke-width="1"/><line x1="96" x2="96" y1="0" y2="512" stroke="#B35047" stroke-width="1"/><line x1="128" x2="128" y1="0" y2="512" stroke="#B35047" stroke-width="1"/><line x1="160" x2="160" y1="0" y2="512" stroke="#B35047" stroke-width="1"/><line x1="192" x2="192" y1="0" y2="512" stroke="#B35047" stroke-width="1"/><line x1="224" x2="224" y1="0" y2="512" stroke="#B35047" stroke-width="1"/><line x1="256" x2="256" y1="0" y2="512" stroke="#B35047" stroke-width="1"/><line x1="288" x2="288" y1="0" y2="512" stroke="#B35047" stroke-width="1"/><line x1="320" x2="320" y1="0" y2="512" stroke="#B35047" stroke-width="1"/><line x1="352" x2="352" y1="0" y2="512" stroke="#B35047" stroke-width="1"/><line x1="384" x2="384" y1="0" y2="512" stroke="#B35047" stroke-width="1"/><line x1="416" x2="416" y1="0" y2="512" stroke="#B35047" stroke-width="1"/><line x1="448" x2="448" y1="0" y2="512" stroke="#B35047" stroke-width="1"/><line x1="480" x2="480" y1="0" y2="512" stroke="#B35047" stroke-width="1"/><line x1="0" x2="512" y1="32" y2="32" stroke="#B35047" stroke-width="1"/><line x1="0" x2="512" y1="64" y2="64" stroke="#B35047" stroke-width="1"/><line x1="0" x2="512" y1="96" y2="96" stroke="#B35047" stroke-width="1"/><line x1="0" x2="512" y1="128" y2="128" stroke="#B35047" stroke-width="1"/><line x1="0" x2="512" y1="160" y2="160" stroke="#B35047" stroke-width="1"/><line x1="0" x2="512" y1="192" y2="192" stroke="#B35047" stroke-width="1"/><line x1="0" x2="512" y1="224" y2="224" stroke="#B35047" stroke-width="1"/><line x1="0" x2="512" y1="256" y2="256" stroke="#B35047" stroke-width="1"/><line x1="0" x2="512" y1="288" y2="288" stroke="#B35047" stroke-width="1"/><line x1="0" x2="512" y1="320" y2="320" stroke="#B35047" stroke-width="1"/><line x1="0" x2="512" y1="352" y2="352" stroke="#B35047" stroke-width="1"/><line x1="0" x2="512" y1="384" y2="384" stroke="#B35047" stroke-width="1"/><line x1="0" x2="512" y1="416" y2="416" stroke="#B35047" stroke-width="1"/><line x1="0" x2="512" y1="448" y2="448" stroke="#B35047" stroke-width="1"/><line x1="0" x2="512" y1="480" y2="480" stroke="#B35047" stroke-width="1"/><rect width="512" height="512" x="0" y="0" fill="none" stroke="#B35047" stroke-width="1"/></g><path d="M 415.886,64.00c 0.039,0.033, 0.081,0.075, 0.114,0.115l0.00,383.771 c-0.033,0.039-0.075,0.081-0.114,0.114L 96.114,448.00 c-0.04-0.033-0.081-0.075-0.114-0.114L 96.00,64.114 c 0.033-0.04, 0.075-0.081, 0.115-0.114L 32.00,64.00 l0.00,384.00 c0.00,35.20, 28.80,64.00, 64.00,64.00l 320.00,0.00 c 35.20,0.00, 64.00-28.80, 64.00-64.00L 480.00,64.00 L 415.886,64.00 zM 128.00,160.00L 192.00,160.00L 192.00,224.00L 128.00,224.00zM 224.00,160.00L 384.00,160.00L 384.00,224.00L 224.00,224.00zM 128.00,256.00L 192.00,256.00L 192.00,320.00L 128.00,320.00zM 224.00,256.00L 384.00,256.00L 384.00,320.00L 224.00,320.00zM 128.00,352.00L 192.00,352.00L 192.00,416.00L 128.00,416.00zM 224.00,352.00L 384.00,352.00L 384.00,416.00L 224.00,416.00zM 320.00,64.00L 320.00,32.00 c0.00-17.673-14.327-32.00-32.00-32.00l-64.00,0.00 c-17.673,0.00-32.00,14.327-32.00,32.00l0.00,32.00 l-64.00,0.00 l0.00,64.00 l 256.00,0.00 L 384.00,64.00 L 320.00,64.00 z M 288.00,64.00l-64.00,0.00 L 224.00,32.00 l 64.00,0.00 L 288.00,64.00 z"/></svg>