<svg xmlns="http://www.w3.org/2000/svg" xmlns:xlink="http://www.w3.org/1999/xlink" width="512" height="512" fill="#000" viewBox="0 0 512 512"><g id="svgGrid" class="svgGrid"><line x1="32" x2="32" y1="0" y2="512" stroke="#B35047" stroke-width="1"/><line x1="64" x2="64" y1="0" y2="512" stroke="#B35047" stroke-width="1"/><line x1="96" x2="96" y1="0" y2="512" stroke="#B35047" stroke-width="1"/><line x1="128" x2="128" y1="0" y2="512" stroke="#B35047" stroke-width="1"/><line x1="160" x2="160" y1="0" y2="512" stroke="#B35047" stroke-width="1"/><line x1="192" x2="192" y1="0" y2="512" stroke="#B35047" stroke-width="1"/><line x1="224" x2="224" y1="0" y2="512" stroke="#B35047" stroke-width="1"/><line x1="256" x2="256" y1="0" y2="512" stroke="#B35047" stroke-width="1"/><line x1="288" x2="288" y1="0" y2="512" stroke="#B35047" stroke-width="1"/><line x1="320" x2="320" y1="0" y2="512" stroke="#B35047" stroke-width="1"/><line x1="352" x2="352" y1="0" y2="512" stroke="#B35047" stroke-width="1"/><line x1="384" x2="384" y1="0" y2="512" stroke="#B35047" stroke-width="1"/><line x1="416" x2="416" y1="0" y2="512" stroke="#B35047" stroke-width="1"/><line x1="448" x2="448" y1="0" y2="512" stroke="#B35047" stroke-width="1"/><line x1="480" x2="480" y1="0" y2="512" stroke="#B35047" stroke-width="1"/><line x1="0" x2="512" y1="32" y2="32" stroke="#B35047" stroke-width="1"/><line x1="0" x2="512" y1="64" y2="64" stroke="#B35047" stroke-width="1"/><line x1="0" x2="512" y1="96" y2="96" stroke="#B35047" stroke-width="1"/><line x1="0" x2="512" y1="128" y2="128" stroke="#B35047" stroke-width="1"/><line x1="0" x2="512" y1="160" y2="160" stroke="#B35047" stroke-width="1"/><line x1="0" x2="512" y1="192" y2="192" stroke="#B35047" stroke-width="1"/><line x1="0" x2="512" y1="224" y2="224" stroke="#B35047" stroke-width="1"/><line x1="0" x2="512" y1="256" y2="256" stroke="#B35047" stroke-width="1"/><line x1="0" x2="512" y1="288" y2="288" stroke="#B35047" stroke-width="1"/><line x1="0" x2="512" y1="320" y2="320" stroke="#B35047" stroke-width="1"/><line x1="0" x2="512" y1="352" y2="352" stroke="#B35047" stroke-width="1"/><line x1="0" x2="512" y1="384" y2="384" stroke="#B35047" stroke-width="1"/><line x1="0" x2="512" y1="416" y2="416" stroke="#B35047" stroke-width="1"/><line x1="0" x2="512" y1="448" y2="448" stroke="#B35047" stroke-width="1"/><line x1="0" x2="512" y1="480" y2="480" stroke="#B35047" stroke-width="1"/><rect width="512" height="512" x="0" y="0" fill="none" stroke="#B35047" stroke-width="1"/></g><path d="M 32.00,32.00L 160.00,32.00L 160.00,160.00L 32.00,160.00zM 192.00,32.00L 320.00,32.00L 320.00,160.00L 192.00,160.00zM 352.00,32.00L 480.00,32.00L 480.00,160.00L 352.00,160.00zM 32.00,192.00L 160.00,192.00L 160.00,320.00L 32.00,320.00zM 192.00,192.00L 320.00,192.00L 320.00,320.00L 192.00,320.00zM 352.00,192.00L 480.00,192.00L 480.00,320.00L 352.00,320.00zM 32.00,352.00L 160.00,352.00L 160.00,480.00L 32.00,480.00zM 192.00,352.00L 320.00,352.00L 320.00,480.00L 192.00,480.00zM 352.00,352.00L 480.00,352.00L 480.00,480.00L 352.00,480.00z"/></svg>