<svg xmlns="http://www.w3.org/2000/svg" xmlns:xlink="http://www.w3.org/1999/xlink" id="Layer_1" width="512" height="512" x="0" y="0" enable-background="new 0 0 512 512" version="1.1" viewBox="0 0 512 512" xml:space="preserve"><g id="svgGrid"><line x1="32" x2="32" y1="0" y2="512" fill="none" stroke="#B35047"/><line x1="64" x2="64" y1="0" y2="512" fill="none" stroke="#B35047"/><line x1="96" x2="96" y1="0" y2="512" fill="none" stroke="#B35047"/><line x1="128" x2="128" y1="0" y2="512" fill="none" stroke="#B35047"/><line x1="160" x2="160" y1="0" y2="512" fill="none" stroke="#B35047"/><line x1="192" x2="192" y1="0" y2="512" fill="none" stroke="#B35047"/><line x1="224" x2="224" y1="0" y2="512" fill="none" stroke="#B35047"/><line x1="256" x2="256" y1="0" y2="512" fill="none" stroke="#B35047"/><line x1="288" x2="288" y1="0" y2="512" fill="none" stroke="#B35047"/><line x1="320" x2="320" y1="0" y2="512" fill="none" stroke="#B35047"/><line x1="352" x2="352" y1="0" y2="512" fill="none" stroke="#B35047"/><line x1="384" x2="384" y1="0" y2="512" fill="none" stroke="#B35047"/><line x1="416" x2="416" y1="0" y2="512" fill="none" stroke="#B35047"/><line x1="448" x2="448" y1="0" y2="512" fill="none" stroke="#B35047"/><line x1="480" x2="480" y1="0" y2="512" fill="none" stroke="#B35047"/><line x1="0" x2="512" y1="32" y2="32" fill="none" stroke="#B35047"/><line x1="0" x2="512" y1="64" y2="64" fill="none" stroke="#B35047"/><line x1="0" x2="512" y1="96" y2="96" fill="none" stroke="#B35047"/><line x1="0" x2="512" y1="128" y2="128" fill="none" stroke="#B35047"/><line x1="0" x2="512" y1="160" y2="160" fill="none" stroke="#B35047"/><line x1="0" x2="512" y1="192" y2="192" fill="none" stroke="#B35047"/><line x1="0" x2="512" y1="224" y2="224" fill="none" stroke="#B35047"/><line x1="0" x2="512" y1="256" y2="256" fill="none" stroke="#B35047"/><line x1="0" x2="512" y1="288" y2="288" fill="none" stroke="#B35047"/><line x1="0" x2="512" y1="320" y2="320" fill="none" stroke="#B35047"/><line x1="0" x2="512" y1="352" y2="352" fill="none" stroke="#B35047"/><line x1="0" x2="512" y1="384" y2="384" fill="none" stroke="#B35047"/><line x1="0" x2="512" y1="416" y2="416" fill="none" stroke="#B35047"/><line x1="0" x2="512" y1="448" y2="448" fill="none" stroke="#B35047"/><line x1="0" x2="512" y1="480" y2="480" fill="none" stroke="#B35047"/><rect width="512" height="512" fill="none" stroke="#B35047"/></g><path d="M9.3,480L32,502.7c12.4,12.4,32.8,12.4,45.3,0l117.6-117.6C226.6,404.7,264,416,304,416c114.9,0,208-93.1,208-208	S418.9,0,304,0C189.1,0,96,93.1,96,208c0,40,11.3,77.4,30.9,109.2L9.3,434.8C-3.1,447.2-3.1,467.6,9.3,480z M304,352	c-38.5,0-74.6-15-101.8-42.2S160,246.5,160,208s15-74.6,42.2-101.8S265.5,64,304,64s74.6,15,101.8,42.2S448,169.5,448,208	s-15,74.6-42.2,101.8C378.6,337,342.5,352,304,352z"/></svg>